{"title":"Backstreet Boys - Show 'Em What You're Made Of 720p x264 AAC E-S","uid":9221418,"size":34666475,"categoryP":"video","categoryS":"music_videos","magnet":"?xt=urn:btih:edf459b4959a273b0da705446aaaa781d82ad6d8&amp;dn=Backstreet+Boys+-+Show+%27Em+What+You%27re+Made+Of+720p+x264+AAC+E-S&amp;tr=udp%3A%2F%2Ftracker.openbittorrent.com%3A80&amp;tr=udp%3A%2F%2Fopen.demonii.com%3A1337&amp;tr=udp%3A%2F%2Ftracker.coppersurfer.tk%3A6969&amp;tr=udp%3A%2F%2Fexodus.desync.com%3A6969","seeders":2,"leechers":0,"uploader":"canc232","files":1,"time":1384944309,"description":"Backstreet Boys - Show 'Em What You're Made Of 720p x264 AAC E-Subs [GWC] \n\nCOVER : &lt;a href=&quot;\nhttp://s20.postimg.org/edukqv20t/mult.jpg&quot; rel=&quot;nofollow&quot; target=&quot;_NEW&quot;&gt;\nhttp://s20.postimg.org/edukqv20t/mult.jpg&lt;/a&gt;\n\nShow 'Em (What You're Made Of)&quot; is the third single off of the band's July album, &quot;In a World Like This&quot;\n\nTHUMBNAIL IMAGE : &lt;a href=&quot;\nhttp://img189.imageshack.us/img189/7842/02g2.jpg&quot; rel=&quot;nofollow&quot; target=&quot;_NEW&quot;&gt;\nhttp://img189.imageshack.us/img189/7842/02g2.jpg&lt;/a&gt;\n\n\nMEDIA INFO :\nGeneral \nFormat : MPEG-4 \nFormat profile : Base Media\nFile size : 33.1 MiB \nDuration : 4mn 0s \nOverall bit rate mode : Variable \nOverall bit rate : 1 152 Kbps\n\nVideo \nFormat : AVC \nFormat profile : &lt;a class=&quot;__cf_email__&quot; href=&quot;/cdn-cgi/l/email-protection&quot; data-cfemail=&quot;f7bf9e909fb7bbc4d9c6&quot;&gt;[email&amp;#160;protected]&lt;/a&gt;&lt;script cf-hash='f9e31' type=&quot;text/javascript&quot;&gt;\n/* &lt;![CDATA[ */!function(){try{var t=&quot;currentScript&quot;in document?document.currentScript:function(){for(var t=document.getElementsByTagName(&quot;script&quot;),e=t.length;e--;)if(t[e].getAttribute(&quot;cf-hash&quot;))return t[e]}();if(t&amp;&amp;t.previousSibling){var e,r,n,i,c=t.previousSibling,a=c.getAttribute(&quot;data-cfemail&quot;);if(a){for(e=&quot;&quot;,r=parseInt(a.substr(0,2),16),n=2;a.length-n;n+=2)i=parseInt(a.substr(n,2),16)^r,e+=String.fromCharCode(i);e=document.createTextNode(e),c.parentNode.replaceChild(e,c)}}}catch(u){}}();/* ]]&gt; */&lt;/script&gt; \nFormat settings, CABAC : Yes \nDuration : 4mn 0s \nSource duration : 4mn 0s \nBit rate : 1 064 Kbps\nWidth : 1 280 pixels \nHeight : 720 pixels \nDisplay aspect ratio : 16:9 \nFrame rate mode : Constant \nFrame rate : 23.976 fps \nStream size : 30.5 MiB (92%) \nTitle : Backstreet Boys - Show 'Em What You're Made Of 720p x264 AAC E-Subs [GWC]\n\nAudio\nFormat : AAC\nFormat profile : LC\nDuration : 4mn 0s \nBit rate mode : Variable \nChannel(s) : 2 channels \nSampling rate : 48.0 KHz \nStream size : 2.46 MiB (7%)\nLanguage : English \n\nText \nFormat : Timed Text \nDuration : 4mn 0s \nBit rate mode : Variable \nTitle : English Subtitle by [GWC] \nLanguage : English","torrent":{"xt":"urn:btih:edf459b4959a273b0da705446aaaa781d82ad6d8","amp;dn":"Backstreet+Boys+-+Show+%27Em+What+You%27re+Made+Of+720p+x264+AAC+E-S","amp;tr":["udp%3A%2F%2Ftracker.openbittorrent.com%3A80","udp%3A%2F%2Fopen.demonii.com%3A1337","udp%3A%2F%2Ftracker.coppersurfer.tk%3A6969","udp%3A%2F%2Fexodus.desync.com%3A6969"],"infoHash":"edf459b4959a273b0da705446aaaa781d82ad6d8","infoHashBuffer":{"type":"Buffer","data":[237,244,89,180,149,154,39,59,13,167,5,68,106,170,167,129,216,42,214,216]},"announce":[],"urlList":[]}}